<?xml version="1.0" encoding="UTF-8"?>
<svg id="Capa_2" data-name="Capa 2" xmlns="http://www.w3.org/2000/svg" viewBox="0 0 30.04 28.14">
  <g id="Capa_2-2" data-name="Capa 2">
    <g id="Capa_2-2" data-name="Capa 2-2">
      <g>
        <path d="M29.21,14.35c1.1,2.7,1.11,5.28,0,7.97-2.27-1.01-4.22-.05-6.19.9-2.14,1.04-4.32,1.52-6.57.26-2.56-1.44-3.64-4.55-2.56-7.34,1.03-2.64,3.95-4.19,6.77-3.45,1.18.32,2.33.82,3.46,1.33,1.61.74,3.23,1.15,5.07.33h.03,0Z" style="fill: #a3f883; isolation: isolate; opacity: .2; stroke-width: 0px;"/>
        <path d="M6.07,10.04c-.38-.38-.99-.38-1.35,0s-.38.99,0,1.35l3.41,3.41c.38.38.99.38,1.35,0s.38-.99,0-1.35l-3.41-3.41Z" style="fill: #a3f883; stroke-width: 0px;"/>
        <path d="M11.31,11.41c.38-.38.38-.99,0-1.35L2.72,1.41c-.23-.23-.54-.32-.83-.27.05-.31-.03-.6-.26-.85C1.26-.09.66-.09.28.28-.09.66-.1,1.26.28,1.64s.54.32.82.27c-.05.31.03.62.26.85l8.6,8.66c.38.38.99.38,1.35,0h0,0Z" style="fill: #a3f883; stroke-width: 0px;"/>
        <path d="M12.62,8.98c.38.38.99.38,1.35,0h0c.38-.38.38-.99,0-1.35l-4.88-4.89c-.38-.38-.99-.38-1.35,0s-.38.99,0,1.35l4.88,4.89Z" style="fill: #a3f883; stroke-width: 0px;"/>
        <path d="M13.89,4.58c-.05.31.03.62.26.85l2.08,2.06c.38.38.99.38,1.35,0s.38-.99,0-1.35l-2.08-2.06c-.23-.23-.54-.32-.82-.27.04-.28-.03-.6-.26-.83-.37-.38-.97-.38-1.35,0s-.38.97,0,1.35c.38.38.54.32.82.27h0v-.02Z" style="fill: #a3f883; stroke-width: 0px;"/>
        <path d="M28.62,13.41c-1.31.55-2.46.26-3.65-.21-1.56-.62-3.11-1.38-4.73-1.68-2.78-.51-5.07.62-6.64,2.99-1.61,2.47-1.63,5.06-.06,7.57,1.52,2.43,3.84,3.6,6.66,3.13,1.59-.27,3.13-1.01,4.65-1.61,1.24-.51,2.46-.85,3.75-.27-1.38,3.25-6.14,5.42-10.06,4.65-4.59-.9-7.82-4.73-7.97-9.44-.14-4.45,3.02-8.55,7.37-9.62,4.22-1.03,8.94.95,10.69,4.51v-.03h-.01Z" style="fill: #a3f883; stroke-width: 0px;"/>
      </g>
    </g>
  </g>
</svg>