<?xml version="1.0" encoding="UTF-8"?>
<svg id="Capa_2" data-name="Capa 2" xmlns="http://www.w3.org/2000/svg" viewBox="0 0 144.18 28.13">
  <g id="Capa_2-2" data-name="Capa 2">
    <path d="M0,17.07c0-4.92,2.86-8.01,8.06-8.01s8.09,3.09,8.09,8.01v11.07h-2.06v-6.29H2v6.29H0v-11.07ZM14.1,19.96v-2.89c0-3.77-2.06-6.12-6.06-6.12s-6.03,2.34-6.03,6.12v2.89h12.1Z" style="fill: #000; stroke-width: 0px;"/>
    <path d="M18.47,20.7c0-4.29,3.15-7.44,7.61-7.44,3.66,0,6.43,2.12,7.26,5.26h-1.94c-.77-2.12-2.75-3.49-5.32-3.49-3.37,0-5.66,2.4-5.66,5.66s2.29,5.66,5.66,5.66c2.57,0,4.55-1.37,5.32-3.49h1.94c-.83,3.15-3.6,5.26-7.26,5.26-4.46,0-7.61-3.15-7.61-7.43Z" style="fill: #000; stroke-width: 0px;"/>
    <path d="M35.06,20.7c0-4.29,3.15-7.44,7.61-7.44s7.55,3.15,7.55,7.44v.63h-13.18c.26,2.95,2.46,5.03,5.63,5.03,2.23,0,3.95-.92,4.86-2.54h2.09c-1.09,2.6-3.66,4.32-6.95,4.32-4.46,0-7.61-3.15-7.61-7.43ZM48.21,19.61c-.46-2.86-2.69-4.58-5.55-4.58s-5.15,1.8-5.58,4.58h11.12Z" style="fill: #000; stroke-width: 0px;"/>
    <path d="M81.53,19.67c0-4.06,2.43-6.03,5.95-6.03s5.92,1.97,5.92,6.06v.17h-1.89v-.2c0-2.95-1.63-4.26-4.03-4.26s-4.03,1.32-4.03,4.26v8.46h-1.92v-8.46Z" style="fill: #000; stroke-width: 0px;"/>
    <path d="M95.31,9.8c0-.83.63-1.46,1.46-1.46s1.46.63,1.46,1.46-.63,1.46-1.46,1.46-1.46-.63-1.46-1.46ZM95.82,14.01h1.92v14.13h-1.92v-14.13Z" style="fill: #000; stroke-width: 0px;"/>
    <path d="M100.49,20.7c0-4.29,3.15-7.44,7.61-7.44s7.61,3.15,7.61,7.44-3.15,7.43-7.61,7.43-7.61-3.15-7.61-7.43ZM113.75,20.7c0-3.26-2.29-5.66-5.66-5.66s-5.66,2.4-5.66,5.66,2.29,5.66,5.66,5.66,5.66-2.4,5.66-5.66Z" style="fill: #000; stroke-width: 0px;"/>
    <path d="M118.47,7.83h1.92v20.3h-1.92V7.83Z" style="fill: #000; stroke-width: 0px;"/>
    <path d="M124.28,7.83h1.92v20.3h-1.92V7.83Z" style="fill: #000; stroke-width: 0px;"/>
    <path d="M128.97,20.7c0-4.29,3.15-7.44,7.61-7.44s7.61,3.15,7.61,7.44-3.15,7.43-7.61,7.43-7.61-3.15-7.61-7.43ZM142.24,20.7c0-3.26-2.29-5.66-5.66-5.66s-5.66,2.4-5.66,5.66,2.29,5.66,5.66,5.66,5.66-2.4,5.66-5.66Z" style="fill: #000; stroke-width: 0px;"/>
    <g>
      <path d="M78.41,14.34c1.1,2.7,1.11,5.28,0,7.97-2.27-1.01-4.22-.05-6.19.9-2.14,1.04-4.32,1.52-6.57.26-2.56-1.44-3.64-4.55-2.56-7.34,1.03-2.64,3.95-4.19,6.77-3.45,1.18.32,2.33.82,3.46,1.33,1.61.74,3.23,1.15,5.07.33h.03Z" style="fill: #000; isolation: isolate; opacity: .2; stroke-width: 0px;"/>
      <path d="M55.27,10.04c-.38-.38-.99-.38-1.35,0s-.38.99,0,1.35l3.41,3.41c.38.38.99.38,1.35,0s.38-.99,0-1.35c0,0-3.41-3.41-3.41-3.41Z" style="fill: #000; stroke-width: 0px;"/>
      <path d="M60.51,11.41c.38-.38.38-.99,0-1.35L51.92,1.4c-.23-.23-.54-.32-.83-.27.05-.31-.03-.6-.26-.85-.37-.38-.97-.38-1.35,0-.37.38-.38.97,0,1.35s.54.32.82.27c-.05.31.03.62.26.85l8.6,8.66c.38.38.99.38,1.35,0h.01Z" style="fill: #000; stroke-width: 0px;"/>
      <path d="M61.82,8.98c.38.38.99.38,1.35,0h0c.38-.38.38-.99,0-1.35l-4.88-4.89c-.38-.38-.99-.38-1.35,0s-.38.99,0,1.35l4.88,4.89Z" style="fill: #000; stroke-width: 0px;"/>
      <path d="M63.09,4.57c-.05.31.03.62.26.85l2.08,2.06c.38.38.99.38,1.35,0s.38-.99,0-1.35l-2.08-2.06c-.23-.23-.54-.32-.82-.27.04-.28-.03-.6-.26-.83-.37-.38-.97-.38-1.35,0s-.38.97,0,1.35.54.32.82.27h0Z" style="fill: #000; stroke-width: 0px;"/>
      <path d="M77.82,13.41c-1.31.55-2.46.26-3.65-.21-1.56-.62-3.11-1.38-4.73-1.68-2.78-.51-5.07.62-6.64,2.99-1.61,2.47-1.63,5.06-.06,7.57,1.52,2.43,3.84,3.6,6.66,3.13,1.59-.27,3.13-1.01,4.65-1.61,1.24-.51,2.46-.85,3.75-.27-1.38,3.25-6.14,5.42-10.06,4.65-4.59-.9-7.82-4.73-7.97-9.44-.14-4.45,3.02-8.55,7.37-9.62,4.22-1.03,8.94.95,10.69,4.51v-.03h-.01Z" style="fill: #000; stroke-width: 0px;"/>
    </g>
  </g>
</svg>