<?xml version="1.0" encoding="UTF-8"?>
<svg id="Capa_2" data-name="Capa 2" xmlns="http://www.w3.org/2000/svg" viewBox="0 0 18.31 20">
  <defs>
    <style>
      .cls-1 {
        fill: #000;
      }

      .cls-1, .cls-2 {
        stroke-width: 0px;
      }

      .cls-2 {
        fill: #b9e139;
      }
    </style>
  </defs>
  <g id="Capa_1-2" data-name="Capa 1">
    <g>
      <path class="cls-1" d="M17.73.07c-.23.14-.25.44-.05.61.16.14.34.13.5-.02.2-.18.16-.49-.07-.61-.15-.08-.23-.07-.38.02Z"/>
      <path class="cls-1" d="M14.03,3.74c-1.95,1.95-2.92,2.97-2.92,3.08,0,.3.28.49.53.36.2-.11,5.83-5.78,5.86-5.9.03-.13-.04-.32-.16-.4-.04-.03-.15-.06-.24-.06-.16,0-.18.02-3.08,2.92h0Z"/>
      <path class="cls-1" d="M10.64,3.76c-.65.65-1.21,1.24-1.24,1.3-.07.16-.03.31.11.43.13.11.26.13.41.04.15-.08,2.38-2.33,2.43-2.45.09-.24-.11-.5-.38-.5s-.21.07-1.33,1.18Z"/>
      <path class="cls-1" d="M14.52,6.61c-.93.93-1.71,1.72-1.74,1.77-.02.04-.04.14-.04.21,0,.19.18.36.39.36s.22-.07,1.88-1.73,1.85-1.85,1.73-2.07c-.08-.15-.2-.23-.37-.23s-.18.03-1.85,1.69h0Z"/>
      <path class="cls-1" d="M12.77,11.32c-.32-.96-.85-1.79-1.61-2.55-1.01-1-2.25-1.62-3.68-1.83-.49-.07-1.39-.07-1.87,0-1.99.3-3.66,1.43-4.71,3.16-.99,1.63-1.18,3.8-.52,5.61.63,1.69,2,3.12,3.66,3.8,1.21.49,2.57.62,3.85.36,1.17-.24,2.39-.9,3.27-1.77,1.8-1.78,2.41-4.37,1.6-6.79h0ZM8.94,8.21c.04-.05.56.23.98.53.7.5,1.33,1.22,1.72,1.95l.18.34-.11.14c-.55.74-.87,1.37-1.24,2.37-.28.78-.41,1.05-.66,1.45-.25.38-.95,1.08-1.26,1.26-.61.36-1.18.52-1.85.52s-1.24-.16-1.85-.52c-.32-.19-.94-.81-1.14-1.15-.73-1.24-.66-2.74.2-3.89.39-.54,1.1-1.1,1.73-1.37.17-.08.57-.23.88-.34.77-.28,1.34-.56,1.9-.93.26-.18.49-.34.5-.36h0ZM12.26,14.4c-.32,1.84-1.48,3.39-3.17,4.24s-2.96.75-4.35.29c-2.06-.69-3.57-2.49-3.89-4.64-.2-1.28.09-2.73.77-3.83.87-1.42,2.34-2.44,3.91-2.7.18-.03.38-.06.43-.07.21-.04,1.43.01,1.72.07.44.09.44.08.14.28-.39.25-.88.47-1.7.77-.4.14-.83.32-.96.38-.56.28-1.22.8-1.66,1.3-1.28,1.47-1.41,3.57-.32,5.2.25.38.78.9,1.18,1.16,1.44.95,3.33.95,4.76-.02.68-.46,1.4-1.31,1.75-2.08.07-.16.23-.57.36-.91.26-.74.49-1.23.74-1.62.18-.27.19-.28.22-.2.16.43.21,1.69.09,2.37h0Z"/>
      <path class="cls-2" d="M12.26,14.4c-.32,1.84-1.48,3.39-3.17,4.24s-2.96.75-4.35.29c-2.06-.69-3.57-2.49-3.89-4.64-.2-1.28.09-2.73.77-3.83.87-1.42,2.34-2.44,3.91-2.7.18-.03.38-.06.43-.07.21-.04,1.43.01,1.72.07.44.09.44.08.14.28-.39.25-.88.47-1.7.77-.4.14-.83.32-.96.38-.56.28-1.22.8-1.66,1.3-1.28,1.47-1.41,3.57-.32,5.2.25.38.78.9,1.18,1.16,1.44.95,3.33.95,4.76-.02.68-.46,1.4-1.31,1.75-2.08.07-.16.23-.57.36-.91.26-.74.49-1.23.74-1.62.18-.27.19-.28.22-.2.16.43.21,1.69.09,2.37h0Z"/>
      <path class="cls-2" d="M11.82,11.03l-.11.14c-.55.74-.87,1.37-1.24,2.37-.28.78-.41,1.05-.66,1.45-.25.38-.95,1.08-1.26,1.26-.61.36-1.18.52-1.85.52s-1.24-.16-1.85-.52c-.32-.19-.94-.81-1.14-1.15-.73-1.24-.66-2.74.2-3.89.39-.54,1.1-1.1,1.73-1.37.17-.08.57-.23.88-.34.77-.28,1.34-.56,1.9-.93.26-.18.49-.34.5-.36.04-.05.56.23.98.53.7.5,1.33,1.22,1.72,1.95l.18.34h0Z"/>
      <path class="cls-1" d="M16.79,7.75c-.29.16-.29.54,0,.69.14.07.28.05.41-.07.11-.09.13-.14.13-.28,0-.29-.31-.48-.55-.34h0Z"/>
      <path class="cls-1" d="M16.07,8.51c-.14.02-1.67,1.55-1.69,1.69-.04.27.12.47.38.47s.18-.02.97-.81c.79-.79.81-.82.81-.97,0-.25-.2-.41-.47-.38h0Z"/>
    </g>
  </g>
</svg>