<?xml version="1.0" encoding="UTF-8"?>
<svg id="Capa_2" data-name="Capa 2" xmlns="http://www.w3.org/2000/svg" viewBox="0 0 83.44 37.42">
  <defs>
    <style>
      .cls-1 {
        isolation: isolate;
        opacity: .1;
      }

      .cls-1, .cls-2 {
        fill: #27be67;
      }

      .cls-1, .cls-2, .cls-3 {
        stroke-width: 0px;
      }

      .cls-3 {
        fill: #fff;
      }
    </style>
  </defs>
  <g id="Capa_2-2" data-name="Capa 2">
    <g>
      <path class="cls-3" d="M8.13,0C2.88,0,0,3.11,0,8.06v11.14h2.01v-6.35h12.19v6.35h2.08v-11.14C16.27,3.11,13.39,0,8.11,0c0,0,.01,0,.01,0ZM14.21,10.98H2.01v-2.91c0-3.8,2.11-6.16,6.08-6.16s6.11,2.36,6.11,6.16v2.91h.01Z"/>
      <path class="cls-3" d="M26.27,6.39c2.59,0,4.57,1.39,5.34,3.52h1.95c-.83-3.17-3.63-5.3-7.32-5.3s-7.66,3.17-7.66,7.48,3.17,7.48,7.66,7.48,6.47-2.13,7.32-5.3h-1.95c-.78,2.13-2.76,3.52-5.34,3.52s-5.7-2.42-5.7-5.7,2.3-5.7,5.7-5.7h0Z"/>
      <path class="cls-3" d="M50.58,12.1c0-4.33-3.11-7.48-7.61-7.48s-7.66,3.17-7.66,7.48,3.17,7.48,7.66,7.48,5.89-1.72,7-4.34h-2.11c-.92,1.64-2.66,2.56-4.89,2.56-3.19,0-5.41-2.11-5.67-5.07h13.27v-.62h0ZM37.36,11.01c.42-2.78,2.66-4.61,5.61-4.61s5.12,1.72,5.6,4.61h-11.21Z"/>
    </g>
    <g>
      <path class="cls-1" d="M32.01,26.67c.86,2.11.87,4.12,0,6.22-1.77-.79-3.29-.04-4.83.7-1.67.81-3.37,1.19-5.13.2-2-1.12-2.84-3.55-2-5.73.8-2.06,3.08-3.27,5.28-2.69.92.25,1.82.64,2.7,1.04,1.26.58,2.52.9,3.96.26h.01Z"/>
      <g>
        <path class="cls-2" d="M46.37,21.64c-.65,0-1.14.49-1.14,1.14s.49,1.14,1.14,1.14,1.14-.49,1.14-1.14-.49-1.14-1.14-1.14Z"/>
        <rect class="cls-2" x="45.63" y="26.07" width="1.5" height="11.04"/>
        <path class="cls-2" d="M55.22,25.77c-3.49,0-5.95,2.46-5.95,5.81s2.46,5.81,5.95,5.81,5.95-2.46,5.95-5.81-2.46-5.81-5.95-5.81h0ZM55.22,36.02c-2.63,0-4.42-1.88-4.42-4.42s1.79-4.42,4.42-4.42,4.42,1.88,4.42,4.42-1.79,4.42-4.42,4.42h0Z"/>
        <rect class="cls-2" x="63.34" y="21.24" width="1.5" height="15.88"/>
        <rect class="cls-2" x="67.88" y="21.24" width="1.5" height="15.88"/>
        <path class="cls-2" d="M77.49,25.77c-3.49,0-5.95,2.46-5.95,5.81s2.46,5.81,5.95,5.81,5.95-2.46,5.95-5.81-2.46-5.81-5.95-5.81h0ZM77.49,36.02c-2.63,0-4.42-1.88-4.42-4.42s1.79-4.42,4.42-4.42,4.42,1.88,4.42,4.42-1.79,4.42-4.42,4.42h0Z"/>
        <path class="cls-2" d="M13.95,23.31c-.3-.3-.77-.3-1.05,0s-.3.77,0,1.05l2.66,2.66c.3.3.77.3,1.05,0s.3-.77,0-1.05c0,0-2.66-2.66-2.66-2.66Z"/>
        <path class="cls-2" d="M18.04,24.38c.3-.3.3-.77,0-1.05l-6.71-6.76c-.18-.18-.42-.25-.65-.21.04-.24-.02-.47-.2-.66-.29-.3-.76-.3-1.05,0s-.3.76,0,1.05.42.25.64.21c-.04.24.02.48.2.66l6.71,6.76c.3.3.77.3,1.05,0h.01Z"/>
        <path class="cls-2" d="M19.06,22.48c.3.3.77.3,1.05,0h0c.3-.3.3-.77,0-1.05l-3.81-3.82c-.3-.3-.77-.3-1.05,0s-.3.77,0,1.05l3.81,3.82Z"/>
        <path class="cls-2" d="M20.05,19.04c-.04.24.02.48.2.66l1.62,1.61c.3.3.77.3,1.05,0s.3-.77,0-1.05l-1.62-1.61c-.18-.18-.42-.25-.64-.21.03-.22-.02-.47-.2-.65-.29-.3-.76-.3-1.05,0s-.3.76,0,1.05.42.25.64.21h0Z"/>
        <path class="cls-2" d="M39.1,25.77c-2.74,0-4.65,1.54-4.65,4.72v6.62h1.5v-6.62c0-2.31,1.25-3.34,3.15-3.34s3.15,1.03,3.15,3.34v.15h1.48v-.13c0-3.19-1.88-4.74-4.63-4.74Z"/>
        <path class="cls-2" d="M31.55,25.94c-1.02.43-1.92.2-2.85-.16-1.22-.48-2.43-1.08-3.69-1.31-2.17-.4-3.96.48-5.18,2.33-1.26,1.93-1.27,3.95-.05,5.91,1.19,1.9,3,2.81,5.2,2.44,1.24-.21,2.44-.79,3.63-1.26.97-.4,1.92-.66,2.93-.21-1.08,2.54-4.79,4.23-7.85,3.63-3.58-.7-6.1-3.69-6.22-7.37-.11-3.47,2.36-6.67,5.75-7.51,3.29-.8,6.98.74,8.34,3.52v-.02h-.01Z"/>
      </g>
    </g>
  </g>
</svg>