<?xml version="1.0" encoding="UTF-8"?>
<svg id="Capa_2" data-name="Capa 2" xmlns="http://www.w3.org/2000/svg" viewBox="0 0 22.03 22">
  <defs>
    <style>
      .cls-1 {
        fill: #000;
        stroke-width: 0px;
      }
    </style>
  </defs>
  <g id="Capa_2-2" data-name="Capa 2">
    <path class="cls-1" d="M16.56,6.11c.07-.36.14-.71.21-1.05,1.97-.64,1.7-3.34-.12-3.74-2.11-.46-3.26,2.37-1.46,3.53-.5.75-.98,1.47-1.48,2.23-.6-1.18-1.18-2.32-1.76-3.46,1.63-.95,1.48-3.61-.84-3.61s-2.52,2.76-1.04,3.63c-.58,1.14-1.17,2.28-1.76,3.45-.51-.73-.98-1.47-1.48-2.2,1.86-1.36.59-4.17-1.65-3.49-1.79.58-1.68,3.18.1,3.71.35,1.98.78,3.94,1.16,5.92.09.44.31.63.76.63,2.56,0,5.12,0,7.68,0,.37,0,.6-.19.69-.55.34-1.66.66-3.31.99-4.97Z"/>
    <g>
      <rect class="cls-1" y="15.55" width="6.45" height="6.45" rx=".52" ry=".52"/>
      <rect class="cls-1" x="7.74" y="12.93" width="6.45" height="9.07" rx=".61" ry=".61"/>
      <rect class="cls-1" x="15.58" y="18.14" width="6.45" height="3.86" rx=".4" ry=".4"/>
    </g>
  </g>
</svg>