<?xml version="1.0" encoding="UTF-8"?>
<svg id="Capa_2" data-name="Capa 2" xmlns="http://www.w3.org/2000/svg" viewBox="0 0 490 458.33">
  <path d="M196.46,146.93c-85.02,0-131.77,50.42-131.77,130.63v180.59h32.54v-102.9h197.55v102.9h33.69v-180.59c0-80.21-46.75-130.63-132.23-130.63h.23ZM295,325H97.23v-47.21c0-61.65,34.15-99.92,98.54-99.92s99,38.27,99,99.92v47.21h.23Z" style="fill: #fff; stroke-width: 0px;"/>
  <path d="M99.29,163.89c-6.19-6.19-16.04-6.19-22,0s-6.19,16.04,0,22l55.46,55.46c6.19,6.19,16.04,6.19,22,0s6.19-16.04,0-22c0,0-55.46-55.46-55.46-55.46ZM184.54,186.12c6.19-6.19,6.19-16.04,0-22L44.52,22.95c-3.67-3.67-8.71-5.27-13.52-4.35.92-5.04-.46-9.85-4.13-13.75-6.19-6.42-16.04-6.42-22.23-.23-6.19,6.19-6.19,15.81,0,22,6.19,6.19,8.71,5.27,13.29,4.35-.92,5.04.46,10.08,4.13,13.75l140.02,141.17c6.19,6.19,16.04,6.19,22,0h.23l.23.23ZM206.08,146.47c6.19,6.19,16.04,6.19,22,0h0c6.19-6.19,6.19-16.04,0-22l-79.52-79.75c-6.19-6.19-16.04-6.19-22,0-5.96,6.19-6.19,16.04,0,22l79.52,79.75ZM226.94,74.74c-.92,5.04.46,10.08,4.13,13.75l33.92,33.69c6.19,6.19,16.04,6.19,22,0,5.96-6.19,6.19-16.04,0-22l-33.92-33.69c-3.67-3.67-8.71-5.27-13.29-4.35.69-4.58-.46-9.85-4.13-13.52-5.96-6.19-15.81-6.19-22,0-6.19,6.19-6.19,15.81,0,22,6.19,6.19,8.71,5.27,13.29,4.35h0v-.23ZM466.88,218.66c-21.31,8.94-40.11,4.13-59.58-3.44-25.44-10.08-50.65-22.46-77-27.27-45.38-8.25-82.73,10.08-108.17,48.58-26.35,40.33-26.58,82.5-1.15,123.29,24.75,39.65,62.56,58.67,108.63,50.88,25.9-4.35,50.88-16.5,75.86-26.35,20.17-8.25,40.11-13.75,61.19-4.35-22.46,52.94-99.92,88.23-163.86,75.86-74.71-14.67-127.42-77-129.94-153.77-2.29-72.42,49.27-139.34,120.09-156.75,68.75-16.73,145.75,15.35,174.17,73.56v-.46h-.23v.23Z" style="fill: #27be67; stroke-width: 0px;"/>
  <path d="M476.51,234.01c17.88,44,18.1,85.94,0,129.94-36.9-16.5-68.75-.92-100.84,14.67-34.83,16.96-70.36,24.75-107.02,4.13-41.71-23.38-59.36-74.02-41.71-119.63,16.73-43.08,64.4-68.29,110.23-56.15,19.25,5.27,38.04,13.29,56.38,21.77,26.35,12.15,52.71,18.79,82.73,5.5h.23v-.23Z" style="fill: #27be67; isolation: isolate; opacity: .1; stroke-width: 0px;"/>
</svg>