<?xml version="1.0" encoding="UTF-8"?>
<svg id="Capa_1" data-name="Capa 1" xmlns="http://www.w3.org/2000/svg" version="1.1" viewBox="0 0 24 24">
  <defs>
    <style>
      .cls-1 {
        fill: #000;
        stroke-width: 0px;
      }
    </style>
  </defs>
  <path class="cls-1" d="M12,19c.6,0,1-.4,1-1s-.4-1-1-1-1,.4-1,1,.4,1,1,1ZM17,19c.6,0,1-.4,1-1s-.4-1-1-1-1,.4-1,1,.4,1,1,1ZM17,15c.6,0,1-.4,1-1s-.4-1-1-1-1,.4-1,1,.4,1,1,1ZM12,15c.6,0,1-.4,1-1s-.4-1-1-1-1,.4-1,1,.4,1,1,1ZM19,3h-1v-1c0-.6-.4-1-1-1s-1,.4-1,1v1h-8v-1c0-.6-.4-1-1-1s-1,.4-1,1v1h-1c-1.7,0-3,1.3-3,3v14c0,1.7,1.3,3,3,3h14c1.7,0,3-1.3,3-3V6c0-1.7-1.3-3-3-3ZM20,20c0,.6-.4,1-1,1H5c-.6,0-1-.4-1-1v-9h16v9ZM20,9H4v-3c0-.6.4-1,1-1h1v1c0,.6.4,1,1,1s1-.4,1-1v-1h8v1c0,.6.4,1,1,1s1-.4,1-1v-1h1c.6,0,1,.4,1,1v3ZM7,15c.6,0,1-.4,1-1s-.4-1-1-1-1,.4-1,1,.4,1,1,1ZM7,19c.6,0,1-.4,1-1s-.4-1-1-1-1,.4-1,1,.4,1,1,1Z"/>
</svg>