<?xml version="1.0" encoding="UTF-8"?>
<svg id="Capa_2" data-name="Capa 2" xmlns="http://www.w3.org/2000/svg" viewBox="0 0 21.37 20">
  <defs>
    <style>
      .cls-1 {
        isolation: isolate;
        opacity: .1;
      }

      .cls-1, .cls-2 {
        fill: #27be67;
      }

      .cls-1, .cls-2, .cls-3 {
        stroke-width: 0px;
      }

      .cls-3 {
        fill: #fff;
      }
    </style>
  </defs>
  <g id="Capa_1-2" data-name="Capa 1">
    <path class="cls-3" d="M8.57,6.41c-3.71,0-5.75,2.2-5.75,5.7v7.88h1.42v-4.49h8.62v4.49h1.47v-7.88c0-3.5-2.04-5.7-5.77-5.7,0,0,.01,0,.01,0ZM12.87,14.18H4.24v-2.06c0-2.69,1.49-4.36,4.3-4.36s4.32,1.67,4.32,4.36v2.06Z"/>
    <g>
      <path class="cls-1" d="M20.79,10.21c.78,1.92.79,3.75,0,5.67-1.61-.72-3-.04-4.4.64-1.52.74-3.07,1.08-4.67.18-1.82-1.02-2.59-3.23-1.82-5.22.73-1.88,2.81-2.98,4.81-2.45.84.23,1.66.58,2.46.95,1.15.53,2.3.82,3.61.24h.01Z"/>
      <path class="cls-2" d="M4.33,7.15c-.27-.27-.7-.27-.96,0s-.27.7,0,.96l2.42,2.42c.27.27.7.27.96,0s.27-.7,0-.96l-2.42-2.42Z"/>
      <path class="cls-2" d="M8.05,8.12c.27-.27.27-.7,0-.96L1.94,1c-.16-.16-.38-.23-.59-.19.04-.22-.02-.43-.18-.6C.9-.07.47-.07.2.2S-.07.89.2,1.16s.38.23.58.19c-.04.22.02.44.18.6l6.11,6.16c.27.27.7.27.96,0h.01Z"/>
      <path class="cls-2" d="M8.99,6.39c.27.27.7.27.96,0h0c.27-.27.27-.7,0-.96l-3.47-3.48c-.27-.27-.7-.27-.96,0s-.27.7,0,.96c0,0,3.47,3.48,3.47,3.48Z"/>
      <path class="cls-2" d="M9.9,3.26c-.04.22.02.44.18.6l1.48,1.47c.27.27.7.27.96,0s.27-.7,0-.96l-1.48-1.47c-.16-.16-.38-.23-.58-.19.03-.2-.02-.43-.18-.59-.26-.27-.69-.27-.96,0s-.27.69,0,.96.38.23.58.19h0Z"/>
      <path class="cls-2" d="M20.37,9.54c-.93.39-1.75.18-2.6-.15-1.11-.44-2.21-.98-3.36-1.19-1.98-.36-3.61.44-4.72,2.12-1.15,1.76-1.16,3.6-.05,5.38,1.08,1.73,2.73,2.56,4.74,2.22,1.13-.19,2.22-.72,3.31-1.15.88-.36,1.75-.6,2.67-.19-.98,2.31-4.36,3.85-7.15,3.31-3.26-.64-5.56-3.36-5.67-6.71-.1-3.16,2.15-6.08,5.24-6.84,3-.73,6.36.67,7.6,3.21v-.02h-.01Z"/>
    </g>
  </g>
</svg>